<svg xmlns="http://www.w3.org/2000/svg" fill="none" width="28" height="28"><defs><linearGradient x1=".5" y1="0" x2=".5" y2="1" id="a"><stop offset="0%" stop-color="#FF5000"/><stop offset="100%" stop-color="#FF8C00"/></linearGradient></defs><path d="M6 11.5V8q0-.098.01-.196t.028-.194q.02-.097.048-.19.029-.095.066-.185.038-.091.084-.178.046-.086.101-.168.055-.082.117-.158.062-.076.132-.145.07-.07.145-.132.076-.062.158-.117.082-.055.168-.1.087-.047.178-.085.09-.037.184-.066.094-.028.19-.048.097-.019.195-.028Q7.902 6 8 6h3.5q.098 0 .196.01t.194.028q.097.02.19.048.095.029.185.066.091.038.178.084.086.046.168.101.082.055.158.117.076.062.145.132.07.07.132.145.062.076.117.158.055.082.1.168.047.087.085.178.037.09.066.184.028.094.048.19.019.097.028.195.01.098.01.196v3.5q0 .098-.01.196t-.028.194q-.02.097-.048.19-.029.095-.066.185-.038.091-.084.178-.046.086-.101.168-.055.082-.117.158-.062.076-.132.145-.07.07-.145.132-.076.062-.158.117-.082.055-.168.1-.087.047-.178.085-.09.037-.184.066-.094.028-.19.048-.097.019-.195.028-.098.01-.196.01H8q-.098 0-.196-.01t-.194-.028q-.097-.02-.19-.048-.095-.029-.185-.066-.091-.038-.178-.084-.086-.046-.168-.101-.082-.055-.158-.117-.076-.062-.145-.132-.07-.07-.132-.145-.062-.076-.117-.158-.055-.082-.1-.168-.047-.087-.085-.178-.037-.09-.066-.184-.028-.094-.048-.19-.019-.097-.028-.195Q6 11.598 6 11.5ZM6 20v-3.5q0-.098.01-.196t.028-.194q.02-.096.048-.19.029-.095.066-.185.038-.091.084-.178.046-.086.101-.168.055-.082.117-.158.062-.076.132-.145.07-.07.145-.132.076-.062.158-.117.082-.055.168-.1.087-.047.178-.085.09-.037.184-.066.094-.028.19-.048.097-.019.195-.028.098-.01.196-.01h3.5q.098 0 .196.01t.194.028q.097.02.19.048.095.029.185.066.091.038.178.084.086.046.168.101.082.055.158.117.076.062.145.132.07.07.132.145.062.076.117.158.055.082.1.168.047.087.085.178.037.09.066.184.028.095.048.19.019.097.028.195.01.098.01.196V20q0 .098-.01.196t-.028.194q-.02.096-.048.19-.029.095-.066.185-.038.091-.084.178-.046.086-.101.168-.055.082-.117.158-.062.076-.132.145-.07.07-.145.132-.076.062-.158.117-.082.055-.168.1-.087.047-.178.085-.09.037-.184.066-.094.028-.19.048-.097.019-.195.028-.098.01-.196.01H8q-.098 0-.196-.01t-.194-.028q-.097-.02-.19-.048-.095-.029-.185-.066-.091-.038-.178-.084-.086-.046-.168-.101-.082-.055-.158-.117-.076-.062-.145-.132-.07-.07-.132-.145-.062-.076-.117-.158-.055-.082-.1-.168-.047-.087-.085-.178-.037-.09-.066-.184-.028-.095-.048-.19-.019-.097-.028-.195Q6 20.098 6 20Zm8.5-8.5V8q0-.098.01-.196t.028-.194q.02-.097.048-.19.029-.095.066-.185.038-.091.084-.178.046-.086.101-.168.055-.082.117-.158.062-.076.132-.145.07-.07.145-.132.076-.062.158-.117.082-.055.168-.1.087-.047.178-.085.09-.037.184-.066.095-.028.19-.048.097-.019.195-.028.098-.01.196-.01H20q.098 0 .196.01t.194.028q.096.02.19.048.095.029.185.066.091.038.178.084.086.046.168.101.082.055.158.117.076.062.145.132.07.07.132.145.062.076.117.158.055.082.1.168.047.087.085.178.037.09.066.184.028.094.048.19.019.097.028.195.01.098.01.196v3.5q0 .098-.01.196t-.028.194q-.02.097-.048.19-.029.095-.066.185-.038.091-.084.178-.046.086-.101.168-.055.082-.117.158-.062.076-.132.145-.07.07-.145.132-.076.062-.158.117-.082.055-.168.1-.087.047-.178.085-.09.037-.184.066-.095.028-.19.048-.097.019-.195.028-.098.01-.196.01h-3.5q-.098 0-.196-.01t-.194-.028q-.096-.02-.19-.048-.095-.029-.185-.066-.091-.038-.178-.084-.086-.046-.168-.101-.082-.055-.158-.117-.076-.062-.145-.132-.07-.07-.132-.145-.062-.076-.117-.158-.055-.082-.1-.168-.047-.087-.085-.178-.037-.09-.066-.184-.028-.094-.048-.19-.019-.097-.028-.195-.01-.098-.01-.196Zm0 8.5v-3.5q0-.098.01-.196t.028-.194q.02-.096.048-.19.029-.095.066-.185.038-.091.084-.178.046-.086.101-.168.055-.082.117-.158.062-.076.132-.145.07-.07.145-.132.076-.062.158-.117.082-.055.168-.1.087-.047.178-.085.09-.037.184-.066.095-.028.19-.048.097-.019.195-.028.098-.01.196-.01H20q.098 0 .196.01t.194.028q.096.02.19.048.095.029.185.066.091.038.178.084.086.046.168.101.082.055.158.117.076.062.145.132.07.07.132.145.062.076.117.158.055.082.1.168.047.087.085.178.037.09.066.184.028.095.048.19.019.097.028.195.01.098.01.196V20q0 .098-.01.196t-.028.194q-.02.096-.048.19-.029.095-.066.185-.038.091-.084.178-.046.086-.101.168-.055.082-.117.158-.062.076-.132.145-.07.07-.145.132-.076.062-.158.117-.082.055-.168.1-.087.047-.178.085-.09.037-.184.066-.095.028-.19.048-.097.019-.195.028-.098.01-.196.01h-3.5q-.098 0-.196-.01t-.194-.028q-.096-.02-.19-.048-.095-.029-.185-.066-.091-.038-.178-.084-.086-.046-.168-.101-.082-.055-.158-.117-.076-.062-.145-.132-.07-.07-.132-.145-.062-.076-.117-.158-.055-.082-.1-.168-.047-.087-.085-.178-.037-.09-.066-.184-.028-.095-.048-.19-.019-.097-.028-.195-.01-.098-.01-.196Z" fill="url(#a)"/></svg>